<svg viewBox="0 0 512 512" xmlns="http://www.w3.org/2000/svg">
  <!-- Background -->
  <defs>
    <linearGradient id="bgGradient" x1="0%" y1="0%" x2="100%" y2="100%">
      <stop offset="0%" style="stop-color:#1E293B;stop-opacity:1" />
      <stop offset="100%" style="stop-color:#0F172A;stop-opacity:1" />
    </linearGradient>
    <linearGradient id="accentGradient" x1="0%" y1="0%" x2="100%" y2="0%">
      <stop offset="0%" style="stop-color:#3B82F6;stop-opacity:1" />
      <stop offset="100%" style="stop-color:#8B5CF6;stop-opacity:1" />
    </linearGradient>
    <filter id="shadow">
      <feDropShadow dx="0" dy="10" stdDeviation="20" flood-opacity="0.3"/>
    </filter>
    <filter id="glow">
      <feGaussianBlur stdDeviation="3" result="coloredBlur"/>
      <feMerge>
        <feMergeNode in="coloredBlur"/>
        <feMergeNode in="SourceGraphic"/>
      </feMerge>
    </filter>
  </defs>
  
  <!-- Rounded square background -->
  <rect x="56" y="56" width="400" height="400" rx="80" ry="80" fill="url(#bgGradient)" filter="url(#shadow)"/>
  
  <!-- Main icon -->
  <g transform="translate(256, 256)">
    <!-- Terminal window frame -->
    <rect x="-130" y="-110" width="260" height="220" rx="20" ry="20" fill="#1E293B" stroke="url(#accentGradient)" stroke-width="3"/>
    
    <!-- Terminal header bar -->
    <rect x="-130" y="-110" width="260" height="40" rx="20" ry="20" fill="url(#accentGradient)"/>
    <rect x="-130" y="-90" width="260" height="20" fill="url(#accentGradient)"/>
    
    <!-- Window controls -->
    <circle cx="-100" cy="-90" r="5" fill="#FF5F57"/>
    <circle cx="-80" cy="-90" r="5" fill="#FFBD2E"/>
    <circle cx="-60" cy="-90" r="5" fill="#28CA42"/>
    
    <!-- Terminal content area -->
    <g transform="translate(-110, -50)">
      <!-- Prompt symbol -->
      <text x="0" y="0" font-family="SF Mono, Monaco, monospace" font-size="24" font-weight="600" fill="#10B981">❯</text>
      
      <!-- Paste content representation -->
      <rect x="30" y="-15" width="80" height="3" fill="#64748B"/>
      <rect x="115" y="-15" width="50" height="3" fill="#64748B"/>
      <rect x="30" y="0" width="120" height="3" fill="#64748B"/>
      <rect x="30" y="15" width="90" height="3" fill="#64748B"/>
      
      <!-- Blinking cursor -->
      <rect x="125" y="0" width="2" height="18" fill="#3B82F6" filter="url(#glow)">
        <animate attributeName="opacity" values="1;0;1" dur="1s" repeatCount="indefinite"/>
      </rect>
    </g>
    
    <!-- Prompt line indicator -->
    <g transform="translate(80, 60)">
      <circle cx="0" cy="0" r="30" fill="#10B981" opacity="0.9"/>
      <g transform="rotate(-45)">
        <rect x="-15" y="-2" width="30" height="4" rx="2" fill="#FFFFFF"/>
        <path d="M 10 -8 L 18 0 L 10 8" stroke="#FFFFFF" stroke-width="4" stroke-linecap="round" stroke-linejoin="round" fill="none"/>
      </g>
    </g>
  </g>
</svg>